<svg width="62" height="62" viewBox="0 0 62 62" fill="none" xmlns="http://www.w3.org/2000/svg">
<g id="Black and White Collection 3">
<g id="Group" opacity="0.1">
<g id="Vector" opacity="0.1">
<path d="M61 59.584V61H59.5841" fill="black"/>
<path d="M61 59.584V61H59.5841" stroke="white" stroke-miterlimit="10"/>
</g>
<g id="Vector_2" opacity="0.1">
<path d="M56.8609 61H3.77978Z" fill="black"/>
<path d="M56.8609 61H3.77978" stroke="white" stroke-miterlimit="10" stroke-dasharray="5.77 5.77"/>
</g>
<g id="Vector_3" opacity="0.1">
<path d="M2.41587 61H1V59.584" fill="black"/>
<path d="M2.41587 61H1V59.584" stroke="white" stroke-miterlimit="10"/>
</g>
<g id="Vector_4" opacity="0.1">
<path d="M1 56.8606V3.77533Z" fill="black"/>
<path d="M1 56.8606V3.77533" stroke="white" stroke-miterlimit="10" stroke-dasharray="5.77 5.77"/>
</g>
<g id="Vector_5" opacity="0.1">
<path d="M1 2.41598V1H2.41587" fill="black"/>
<path d="M1 2.41598V1H2.41587" stroke="white" stroke-miterlimit="10"/>
</g>
<g id="Vector_6" opacity="0.1">
<path d="M5.13908 1H58.2202Z" fill="black"/>
<path d="M5.13908 1H58.2202" stroke="white" stroke-miterlimit="10" stroke-dasharray="5.77 5.77"/>
</g>
<g id="Vector_7" opacity="0.1">
<path d="M59.5841 1H61V2.41598" fill="black"/>
<path d="M59.5841 1H61V2.41598" stroke="white" stroke-miterlimit="10"/>
</g>
<g id="Vector_8" opacity="0.1">
<path d="M61 5.13468V58.2247Z" fill="black"/>
<path d="M61 5.13468V58.2247" stroke="white" stroke-miterlimit="10" stroke-dasharray="5.77 5.77"/>
</g>
</g>
<path id="Vector_9" d="M31.2352 23.4578L31.4467 23.458C32.445 23.4589 33.4316 23.6758 34.3418 24.0938L34.3418 24.0938C35.097 24.4406 35.7853 24.9194 36.3767 25.5069L37.5779 24.3962C36.455 23.2494 35.0472 22.4374 33.5052 22.0508L33.5052 22.0508C31.8079 21.6252 30.025 21.7342 28.3885 22.3638C26.7518 22.9936 25.3361 24.1156 24.3275 25.5854L23.9153 25.3025L24.3275 25.5854C23.3188 27.0555 22.7647 28.8046 22.739 30.6047C22.7133 32.4046 23.2173 34.1698 24.1837 35.6697C25.1501 37.1695 26.5334 38.3336 28.1515 39.0123C29.7695 39.6908 31.5486 39.8533 33.2572 39.4788C34.8088 39.1388 36.2384 38.3701 37.3931 37.2584L36.2168 36.1126C35.4773 36.8004 34.6021 37.3222 33.6473 37.6408C32.5319 38.0131 31.3434 38.0962 30.1885 37.8824C30.1885 37.8824 30.1885 37.8824 30.1885 37.8824L30.2796 37.3907C29.2081 37.1923 28.2013 36.7247 27.3491 36.0297C26.4969 35.3346 25.8258 34.4338 25.396 33.4077C24.9662 32.3817 24.7909 31.2623 24.8858 30.1498L31.2352 23.4578ZM31.2352 23.4578L31.2091 23.4847L31.2352 23.4578Z" fill="black" stroke="white"/>
<path id="Vector_10" d="M19.3504 35.8177L19.3504 35.8177C18.6501 34.2085 18.2893 32.481 18.2893 30.7357C18.2893 28.9904 18.6501 27.2629 19.3504 25.6536L19.3504 25.6536C19.982 24.202 20.8782 22.8731 21.9946 21.7284L20.8063 20.5787C19.5248 21.8833 18.5004 23.4003 17.7834 25.0563M19.3504 35.8177L17.7834 36.4151M19.3504 35.8177C19.982 37.2694 20.8782 38.5983 21.9946 39.7429L20.8063 40.8927M19.3504 35.8177L20.8063 40.8927M17.7834 25.0563L17.3245 24.8576L17.7834 25.0563ZM17.7834 25.0563C17.0037 26.8569 16.6027 28.787 16.6027 30.7357C16.6027 32.6844 17.0037 34.6144 17.7834 36.4151M17.7834 36.4151C18.5004 38.071 19.5248 39.588 20.8063 40.8927M17.7834 36.4151L20.8063 40.8927" fill="black" stroke="white"/>
<path id="Vector_11" d="M38.9727 19.6535C36.9592 18.2423 34.6056 17.4431 32.1773 17.3484V15.6681C34.9545 15.7637 37.6502 16.6836 39.9471 18.3224L38.9727 19.6535Z" fill="black" stroke="white"/>
<path id="Vector_12" d="M39.4688 43.6333C37.2644 44.9731 34.753 45.7206 32.1773 45.8037V44.1599C34.4245 44.0784 36.615 43.4285 38.5451 42.2709L39.4688 43.6333Z" fill="black" stroke="white"/>
<path id="Vector_13" d="M24.7989 40.4351L24.7989 40.4351C22.9107 39.176 21.4323 37.4272 20.528 35.395L22.0491 34.7088C22.8165 36.462 24.0752 37.9729 25.6843 39.0669C27.3052 40.1691 29.2102 40.7998 31.1773 40.8925V42.4975C28.8961 42.4062 26.6847 41.6926 24.7989 40.4351Z" fill="black" stroke="white"/>
<path id="Vector_14" d="M24.7068 23.3861L24.7068 23.3862C22.9328 25.0687 21.8173 27.3321 21.5516 29.7637H19.943C20.2088 26.9043 21.4885 24.232 23.5544 22.2455C25.6248 20.2546 28.335 19.0964 31.1773 18.9745V20.6079C28.7674 20.7296 26.4727 21.7113 24.7068 23.3861Z" fill="black" stroke="white"/>
<path id="Vector_15" d="M28.0817 32.4398L28.0817 32.4398C28.4901 33.0172 29.0738 33.4714 29.762 33.7406C30.4503 34.0099 31.2092 34.0807 31.9417 33.9432C32.674 33.8056 33.343 33.4666 33.8654 32.9731L33.8655 32.9731C34.3876 32.4799 34.7397 31.8551 34.882 31.1794L28.0817 32.4398ZM28.0817 32.4398C27.6735 31.8628 27.4577 31.1877 27.4577 30.4997C27.4577 29.5778 27.8452 28.6874 28.5451 28.0263L28.5451 28.0263C29.246 27.3643 30.2025 26.9877 31.2053 26.9877C31.9526 26.9877 32.6811 27.1972 33.2983 27.5867L33.2983 27.5867M28.0817 32.4398L33.2983 27.5867M33.2983 27.5867C33.9153 27.9761 34.3916 28.5265 34.6717 29.1652C34.9516 29.8034 35.0243 30.5038 34.8821 31.1793L33.2983 27.5867Z" fill="black" stroke="white"/>
</g>
</svg>
